<?xml version="1.0" standalone="no"?>
<!DOCTYPE svg PUBLIC "-//W3C//DTD SVG 20010904//EN"
 "http://www.w3.org/TR/2001/REC-SVG-20010904/DTD/svg10.dtd">
<svg version="1.0" xmlns="http://www.w3.org/2000/svg"
 width="72.000000pt" height="72.000000pt" viewBox="0 0 72.000000 72.000000"
 preserveAspectRatio="xMidYMid meet">

<g transform="translate(0.000000,72.000000) scale(0.100000,-0.100000)"
fill="#000000" stroke="none">
<path d="M233 640 c-27 -11 -43 -40 -43 -79 0 -28 -3 -31 -31 -31 -20 0 -40
-10 -60 -29 l-29 -29 0 -135 c0 -120 2 -137 20 -160 11 -14 30 -27 43 -29 16
-2 23 -12 27 -33 8 -46 50 -47 101 -1 39 36 40 36 132 36 56 1 98 5 108 13 21
16 39 51 39 75 0 15 9 21 39 26 26 4 47 15 60 32 19 24 21 40 21 161 l0 135
-29 29 -29 29 -174 -1 c-95 0 -183 -4 -195 -9z m372 -185 l0 -140 -32 -3 -33
-3 0 75 c0 85 -12 119 -47 135 -13 6 -77 11 -143 11 -112 0 -120 1 -120 19 0
52 -1 52 194 49 l181 -3 0 -140z m-114 -2 c15 -40 8 -226 -10 -246 -11 -14
-32 -17 -107 -17 -89 0 -95 -1 -127 -30 -19 -17 -37 -30 -40 -30 -3 0 -7 12
-9 28 -2 21 -9 28 -30 30 -47 6 -58 34 -58 150 0 57 5 112 10 123 10 18 23 19
186 19 l174 0 11 -27z"/>
<path d="M167 364 c-23 -23 7 -69 37 -58 25 10 17 58 -9 62 -12 2 -24 0 -28
-4z"/>
<path d="M274 348 c-12 -40 45 -60 60 -21 4 9 1 22 -5 29 -17 21 -47 17 -55
-8z"/>
<path d="M391 356 c-6 -7 -9 -20 -5 -29 15 -39 72 -19 60 21 -8 25 -38 29 -55
8z"/>
</g>
</svg>
